nColumns=19
nRows=125
DataType=double
version=3
OpenSimVersion=4.1
endheader
time	ground_force_calcn_r_vx	ground_force_calcn_r_vy	ground_force_calcn_r_vz	ground_force_calcn_r_px	ground_force_calcn_r_py	ground_force_calcn_r_pz	ground_force_calcn_r_mx	ground_force_calcn_r_my	ground_force_calcn_r_mz	ground_force_calcn_l_vx	ground_force_calcn_l_vy	ground_force_calcn_l_vz	ground_force_calcn_l_px	ground_force_calcn_l_py	ground_force_calcn_l_pz	ground_force_calcn_l_mx	ground_force_calcn_l_my	ground_force_calcn_l_mz
1.195	0	0	0	0	0	0	0	0	0	-264.971	1873.15	257.34	1.03083	0	-0.378395	0.579579	-4.09721	-0.562887
1.2	0	0	0	0	0	0	0	0	0	-286.251	2213.06	242.225	1.00087	0	-0.370463	2.44481	-18.9013	-2.06879
1.205	0	0	0	0	0	0	0	0	0	-307.94	2532.7	186.386	0.978749	0	-0.364242	3.00883	-24.7466	-1.82114
1.21	0	0	0	0	0	0	0	0	0	-329.96	2799.18	97.3641	0.9609	0	-0.35979	2.83842	-24.0795	-0.837557
1.215	0	0	0	0	0	0	0	0	0	-340.037	2988.71	-3.59888	0.943869	0	-0.357005	2.3633	-20.7719	0.0250127
1.22	0	0	0	0	0	0	0	0	0	-328.79	3094.85	-88.6873	0.923093	0	-0.35607	1.57527	-14.8278	0.424912
1.225	0	0	0	0	0	0	0	0	0	-290.662	3123.24	-131.726	0.894411	0	-0.356835	0.225845	-2.42676	0.102352
1.23	0	0	0	0	0	0	0	0	0	-216.601	3095.12	-121.457	0.85971	0	-0.358286	-0.846769	12.0999	-0.474816
1.235	0	0	0	0	0	0	0	0	0	-116.677	3039.78	-67.8093	0.823417	0	-0.358739	-0.647903	16.8798	-0.376542
1.24	0	0	0	0	0	0	0	0	0	-11.2309	2964.61	-5.13844	0.788815	0	-0.358235	-0.0337864	8.91858	-0.0154582
1.245	0	0	0	0	0	0	0	0	0	94.8328	2857.35	38.5406	0.757398	0	-0.357722	-0.109387	-3.29588	-0.0444555
1.25	0	0	0	0	0	0	0	0	0	203.206	2712.25	62.83	0.728746	0	-0.357285	-0.759433	-10.1364	-0.234811
1.255	0	0	0	0	0	0	0	0	0	308.643	2524.14	79.4665	0.701435	0	-0.356396	-1.41451	-11.5681	-0.364194
1.26	0	0	0	0	0	0	0	0	0	399.312	2281.81	92.5442	0.673442	0	-0.355719	-3.26992	-18.6855	-0.757834
1.265	0	0	0	0	0	0	0	0	0	462.312	1975.38	96.3957	0.639588	0	-0.357215	-8.3623	-35.7306	-1.7436
1.27	0	0	0	0	0	0	0	0	0	496.359	1607.82	80.9795	0.59145	0	-0.362514	-14.9226	-48.3375	-2.43457
1.275	0	0	0	0	0	0	0	0	0	510.322	1205.1	42.7223	0.518998	0	-0.371106	-17.2267	-40.6799	-1.44215
1.28	0	0	0	0	0	0	0	0	0	501.521	811.71	-13.8651	0.411636	0	-0.373315	-6.1922	-10.022	0.171189
1.285	0	0	0	0	0	0	0	0	0	459.284	470.971	-78.8414	0.270898	0	-0.328274	25.3499	25.995	-4.3516
1.29	0	0	0	0	0	0	0	0	0	380.818	217.791	-132.907	0.204831	0	-0.161786	52.119	29.807	-18.1897
1.295	0	0	0	0	0	0	0	0	0	275.371	62.689	-149.783	0.633597	0	0.126565	30.7827	7.00778	-16.7437
1.3	0	0	0	0	0	0	0	0	0	0	0	0	0	0	0	0	0	0
1.305	0	0	0	0	0	0	0	0	0	0	0	0	0	0	0	0	0	0
1.31	0	0	0	0	0	0	0	0	0	0	0	0	0	0	0	0	0	0
1.315	0	0	0	0	0	0	0	0	0	0	0	0	0	0	0	0	0	0
1.32	0	0	0	0	0	0	0	0	0	0	0	0	0	0	0	0	0	0
1.325	0	0	0	0	0	0	0	0	0	0	0	0	0	0	0	0	0	0
1.33	0	0	0	0	0	0	0	0	0	0	0	0	0	0	0	0	0	0
1.335	0	0	0	0	0	0	0	0	0	0	0	0	0	0	0	0	0	0
1.34	0	0	0	0	0	0	0	0	0	0	0	0	0	0	0	0	0	0
1.345	0	0	0	0	0	0	0	0	0	0	0	0	0	0	0	0	0	0
1.35	0	0	0	0	0	0	0	0	0	0	0	0	0	0	0	0	0	0
1.355	0	0	0	0	0	0	0	0	0	0	0	0	0	0	0	0	0	0
1.36	0	0	0	0	0	0	0	0	0	0	0	0	0	0	0	0	0	0
1.365	0	0	0	0	0	0	0	0	0	0	0	0	0	0	0	0	0	0
1.37	0	0	0	0	0	0	0	0	0	0	0	0	0	0	0	0	0	0
1.375	0	0	0	0	0	0	0	0	0	0	0	0	0	0	0	0	0	0
1.38	0	0	0	0	0	0	0	0	0	0	0	0	0	0	0	0	0	0
1.385	0	0	0	0	0	0	0	0	0	0	0	0	0	0	0	0	0	0
1.39	0	0	0	0	0	0	0	0	0	0	0	0	0	0	0	0	0	0
1.395	0	0	0	0	0	0	0	0	0	0	0	0	0	0	0	0	0	0
1.4	0	0	0	0	0	0	0	0	0	0	0	0	0	0	0	0	0	0
1.405	0	0	0	0	0	0	0	0	0	0	0	0	0	0	0	0	0	0
1.41	0	0	0	0	0	0	0	0	0	0	0	0	0	0	0	0	0	0
1.415	-59.9991	70.7089	7.84412	1.24534	0	-0.293993	-3.74493	4.41339	0.489602	0	0	0	0	0	0	0	0	0
1.42	-103.983	230.26	-15.3604	1.14821	0	-0.211635	-0.654053	1.44834	-0.0966166	0	0	0	0	0	0	0	0	0
1.425	-163.898	476.376	-64.9776	1.10109	0	-0.22275	0.404224	-1.17489	0.160255	0	0	0	0	0	0	0	0	0
1.43	-225.562	786.082	-134.469	1.07736	0	-0.231456	1.44074	-5.02097	0.858896	0	0	0	0	0	0	0	0	0
1.435	-261.265	1124.02	-203.105	1.05797	0	-0.238979	2.38501	-10.2608	1.85408	0	0	0	0	0	0	0	0	0
1.44	-262.804	1484.42	-244.753	1.03593	0	-0.246659	1.42144	-8.02891	1.32381	0	0	0	0	0	0	0	0	0
1.445	-258.438	1863.37	-246.521	1.0086	0	-0.253419	-0.77524	5.58957	-0.739493	0	0	0	0	0	0	0	0	0
1.45	-277.963	2233.41	-210.864	0.981569	0	-0.258184	-2.43773	19.587	-1.84928	0	0	0	0	0	0	0	0	0
1.455	-321.762	2558.21	-143.973	0.961129	0	-0.261285	-3.19191	25.3777	-1.42823	0	0	0	0	0	0	0	0	0
1.46	-363.517	2813.01	-47.79	0.94644	0	-0.263412	-3.69069	28.5598	-0.485199	0	0	0	0	0	0	0	0	0
1.465	-378.792	2984.01	73.3487	0.931001	0	-0.265168	-4.19896	33.0782	0.81308	0	0	0	0	0	0	0	0	0
1.47	-358.419	3059.88	204.57	0.908917	0	-0.266071	-3.79065	32.3614	2.16354	0	0	0	0	0	0	0	0	0
1.475	-294.705	3044.24	310.132	0.87875	0	-0.266071	-1.90119	19.6389	2.00071	0	0	0	0	0	0	0	0	0
1.48	-186.906	2971.34	353.737	0.842703	0	-0.266097	0.193408	-3.07471	-0.366043	0	0	0	0	0	0	0	0	0
1.485	-47.5838	2875.19	327.558	0.804875	0	-0.267332	0.328477	-19.8478	-2.26118	0	0	0	0	0	0	0	0	0
1.49	100.16	2757.52	255.448	0.770358	0	-0.269049	-0.468614	-12.9015	-1.19516	0	0	0	0	0	0	0	0	0
1.495	232.744	2598.39	170.588	0.741767	0	-0.269569	1.01931	11.3797	0.747093	0	0	0	0	0	0	0	0	0
1.5	342.285	2383.08	95.6885	0.71746	0	-0.268387	4.65326	32.3972	1.30086	0	0	0	0	0	0	0	0	0
1.505	433.327	2105.37	34.4678	0.692402	0	-0.265918	8.83328	42.9176	0.70262	0	0	0	0	0	0	0	0	0
1.51	504.905	1761.25	-14.9002	0.657631	0	-0.262326	13.135	45.8185	-0.387624	0	0	0	0	0	0	0	0	0
1.515	544.848	1360.16	-47.3444	0.598614	0	-0.257306	17.7072	44.2044	-1.53866	0	0	0	0	0	0	0	0	0
1.52	545.876	937.972	-49.3654	0.494025	0	-0.248289	21.975	37.7593	-1.98727	0	0	0	0	0	0	0	0	0
1.525	509.183	550.486	-17.5252	0.30777	0	-0.240882	17.7202	19.1576	-0.609898	0	0	0	0	0	0	0	0	0
1.53	432.399	253.518	33.4471	-0.00286576	0	-0.304498	-8.31988	-4.87799	-0.643562	0	0	0	0	0	0	0	0	0
1.535	318.079	67.186	76.6822	0.377114	0	-0.594998	-22.7263	-4.80035	-5.47883	0	0	0	0	0	0	0	0	0
1.54	0	0	0	0	0	0	0	0	0	0	0	0	0	0	0	0	0	0
1.545	0	0	0	0	0	0	0	0	0	0	0	0	0	0	0	0	0	0
1.55	0	0	0	0	0	0	0	0	0	0	0	0	0	0	0	0	0	0
1.555	0	0	0	0	0	0	0	0	0	0	0	0	0	0	0	0	0	0
1.56	0	0	0	0	0	0	0	0	0	0	0	0	0	0	0	0	0	0
1.565	0	0	0	0	0	0	0	0	0	0	0	0	0	0	0	0	0	0
1.57	0	0	0	0	0	0	0	0	0	0	0	0	0	0	0	0	0	0
1.575	0	0	0	0	0	0	0	0	0	0	0	0	0	0	0	0	0	0
1.58	0	0	0	0	0	0	0	0	0	0	0	0	0	0	0	0	0	0
1.585	0	0	0	0	0	0	0	0	0	0	0	0	0	0	0	0	0	0
1.59	0	0	0	0	0	0	0	0	0	0	0	0	0	0	0	0	0	0
1.595	0	0	0	0	0	0	0	0	0	0	0	0	0	0	0	0	0	0
1.6	0	0	0	0	0	0	0	0	0	0	0	0	0	0	0	0	0	0
1.605	0	0	0	0	0	0	0	0	0	0	0	0	0	0	0	0	0	0
1.61	0	0	0	0	0	0	0	0	0	0	0	0	0	0	0	0	0	0
1.615	0	0	0	0	0	0	0	0	0	0	0	0	0	0	0	0	0	0
1.62	0	0	0	0	0	0	0	0	0	0	0	0	0	0	0	0	0	0
1.625	0	0	0	0	0	0	0	0	0	0	0	0	0	0	0	0	0	0
1.63	0	0	0	0	0	0	0	0	0	0	0	0	0	0	0	0	0	0
1.635	0	0	0	0	0	0	0	0	0	0	0	0	0	0	0	0	0	0
1.64	0	0	0	0	0	0	0	0	0	0	0	0	0	0	0	0	0	0
1.645	0	0	0	0	0	0	0	0	0	0	0	0	0	0	0	0	0	0
1.65	0	0	0	0	0	0	0	0	0	0	0	0	0	0	0	0	0	0
1.655	0	0	0	0	0	0	0	0	0	0	0	0	0	0	0	0	0	0
1.66	0	0	0	0	0	0	0	0	0	-76.5787	124.66	-31.8672	1.17668	0	-0.339672	10.4782	-17.0571	4.36034
1.665	0	0	0	0	0	0	0	0	0	-121.744	342.156	-8.31324	1.0888	0	-0.450107	2.90661	-8.16891	0.198477
1.67	0	0	0	0	0	0	0	0	0	-194.227	660.34	41.5797	1.05129	0	-0.436674	-1.32671	4.51061	0.28402
1.675	0	0	0	0	0	0	0	0	0	-277.935	1042.22	120.523	1.02945	0	-0.422845	-4.40694	16.5254	1.91101
1.68	0	0	0	0	0	0	0	0	0	-334.27	1448.96	216.056	1.01301	0	-0.408884	-4.69186	20.3378	3.03259
1.685	0	0	0	0	0	0	0	0	0	-352.64	1882.4	300.344	0.994904	0	-0.394683	-0.923602	4.93021	0.786634
1.69	0	0	0	0	0	0	0	0	0	-364.192	2345.75	342.966	0.970027	0	-0.381528	4.35954	-28.0796	-4.10545
1.695	0	0	0	0	0	0	0	0	0	-374.524	2793.36	315.864	0.94725	0	-0.371348	7.86734	-58.678	-6.6351
1.7	0	0	0	0	0	0	0	0	0	-377.285	3162.12	212.965	0.932992	0	-0.364269	8.21881	-68.884	-4.63926
1.705	0	0	0	0	0	0	0	0	0	-384.702	3407.93	55.8942	0.923048	0	-0.359863	6.353	-56.2789	-0.923042
1.71	0	0	0	0	0	0	0	0	0	-390.482	3511.47	-111.948	0.911367	0	-0.357976	3.30744	-29.7426	0.948212
1.715	0	0	0	0	0	0	0	0	0	-367.046	3488.66	-239.978	0.892676	0	-0.358229	0.0444651	-0.422628	0.0290717
1.72	0	0	0	0	0	0	0	0	0	-288.943	3377.29	-287.79	0.863308	0	-0.359424	-2.15429	25.1802	-2.14569
1.725	0	0	0	0	0	0	0	0	0	-155.444	3217.7	-246.925	0.82492	0	-0.359883	-1.87862	38.8875	-2.98421
1.73	0	0	0	0	0	0	0	0	0	-0.164208	3037.58	-149.134	0.784678	0	-0.358615	-0.00167884	31.0557	-1.52472
1.735	0	0	0	0	0	0	0	0	0	140.428	2836.38	-47.0506	0.7495	0	-0.356787	0.143605	2.90055	-0.0481151
1.74	0	0	0	0	0	0	0	0	0	253.213	2601.05	25.7903	0.721435	0	-0.355673	-3.03016	-31.1264	-0.30863
1.745	0	0	0	0	0	0	0	0	0	348.633	2325.51	66.1882	0.698766	0	-0.355525	-7.88937	-52.6251	-1.4978
1.75	0	0	0	0	0	0	0	0	0	431.852	2002.18	85.7121	0.673783	0	-0.356035	-11.7286	-54.377	-2.32785
1.755	0	0	0	0	0	0	0	0	0	494.091	1620.29	89.1807	0.631514	0	-0.358862	-14.075	-46.1566	-2.54046
1.76	0	0	0	0	0	0	0	0	0	527.008	1194.41	77.2218	0.550999	0	-0.368737	-17.4381	-39.5214	-2.55518
1.765	0	0	0	0	0	0	0	0	0	519.026	776.323	48.8408	0.391888	0	-0.390296	-19.3844	-28.9938	-1.82409
1.77	0	0	0	0	0	0	0	0	0	463.549	422.577	0.344664	0.0384541	0	-0.398962	-1.2509	-1.14034	-0.000930087
1.775	0	0	0	0	0	0	0	0	0	368.275	170.844	-63.8675	-0.226577	0	-0.0614123	63.1657	29.3028	-10.9544
1.78	0	0	0	0	0	0	0	0	0	252.36	24.0123	-123.105	4.37577	0	7.86699	197.718	18.813	-96.4497
1.785	0	0	0	0	0	0	0	0	0	0	0	0	0	0	0	0	0	0
1.79	0	0	0	0	0	0	0	0	0	0	0	0	0	0	0	0	0	0
1.795	0	0	0	0	0	0	0	0	0	0	0	0	0	0	0	0	0	0
1.8	0	0	0	0	0	0	0	0	0	0	0	0	0	0	0	0	0	0
1.805	0	0	0	0	0	0	0	0	0	0	0	0	0	0	0	0	0	0
1.81	0	0	0	0	0	0	0	0	0	0	0	0	0	0	0	0	0	0
1.815	0	0	0	0	0	0	0	0	0	0	0	0	0	0	0	0	0	0
